<?xml version="1.0" encoding="utf-8"?><!DOCTYPE svg PUBLIC "-//W3C//DTD SVG 1.1//EN" "http://www.w3.org/Graphics/SVG/1.1/DTD/svg11.dtd"><svg xmlns="http://www.w3.org/2000/svg" xml:space="preserve" xmlns:xlink="http://www.w3.org/1999/xlink" width="924" height="924" viewBox="0 0 924 924">
<rect width="924" height="924" fill="#ffffff" x="0" y="0" />
<g fill="#060691">
<g transform="translate(280,56) scale(4.8066666666667)"><circle cx="3" cy="3" r="2.5"/></g>
<g transform="translate(336,56) scale(4.8066666666667)"><path d="M6,5.5H3C1.6,5.5,0.5,4.4,0.5,3v0c0-1.4,1.1-2.5,2.5-2.5h3V5.5z"/></g>
<g transform="translate(364,56) scale(4.8066666666667)"><rect y="0.5" width="6" height="5"/></g>
<g transform="translate(392,56) scale(4.8066666666667)"><rect y="0.5" width="6" height="5"/></g>
<g transform="translate(420,56) scale(4.8066666666667)"><rect y="0.5" width="6" height="5"/></g>
<g transform="translate(448,56) scale(4.8066666666667)"><rect y="0.5" width="6" height="5"/></g>
<g transform="translate(476,56) scale(4.8066666666667)"><rect y="0.5" width="6" height="5"/></g>
<g transform="translate(504,56) scale(4.8066666666667)"><rect y="0.5" width="6" height="5"/></g>
<g transform="translate(532,56) scale(4.8066666666667)"><rect y="0.5" width="6" height="5"/></g>
<g transform="translate(560,56) scale(4.8066666666667)"><rect y="0.5" width="6" height="5"/></g>
<g transform="translate(588,56) scale(4.8066666666667)"><rect y="0.5" width="6" height="5"/></g>
<g transform="translate(616,56) scale(4.8066666666667)"><path d="M3,5.5H0v-5h3c1.4,0,2.5,1.1,2.5,2.5v0C5.5,4.4,4.4,5.5,3,5.5z"/></g>
<g transform="translate(308,84) scale(4.8066666666667)"><path d="M6,5.5H3C1.6,5.5,0.5,4.4,0.5,3v0c0-1.4,1.1-2.5,2.5-2.5h3V5.5z"/></g>
<g transform="translate(336,84) scale(4.8066666666667)"><rect y="0.5" width="6" height="5"/></g>
<g transform="translate(364,84) scale(4.8066666666667)"><rect y="0.5" width="6" height="5"/></g>
<g transform="translate(392,84) scale(4.8066666666667)"><rect y="0.5" width="6" height="5"/></g>
<g transform="translate(420,84) scale(4.8066666666667)"><path d="M3,5.5H0v-5h3c1.4,0,2.5,1.1,2.5,2.5v0C5.5,4.4,4.4,5.5,3,5.5z"/></g>
<g transform="translate(504,84) scale(4.8066666666667)"><path d="M6,5.5H3C1.6,5.5,0.5,4.4,0.5,3v0c0-1.4,1.1-2.5,2.5-2.5h3V5.5z"/></g>
<g transform="translate(532,84) scale(4.8066666666667)"><path d="M3,5.5H0v-5h3c1.4,0,2.5,1.1,2.5,2.5v0C5.5,4.4,4.4,5.5,3,5.5z"/></g>
<g transform="translate(616,84) scale(4.8066666666667)"><circle cx="3" cy="3" r="2.5"/></g>
<g transform="translate(336,112) scale(4.8066666666667)"><path d="M6,5.5H3C1.6,5.5,0.5,4.4,0.5,3v0c0-1.4,1.1-2.5,2.5-2.5h3V5.5z"/></g>
<g transform="translate(364,112) scale(4.8066666666667)"><rect y="0.5" width="6" height="5"/></g>
<g transform="translate(392,112) scale(4.8066666666667)"><rect y="0.5" width="6" height="5"/></g>
<g transform="translate(420,112) scale(4.8066666666667)"><path d="M3,5.5H0v-5h3c1.4,0,2.5,1.1,2.5,2.5v0C5.5,4.4,4.4,5.5,3,5.5z"/></g>
<g transform="translate(476,112) scale(4.8066666666667)"><path d="M6,5.5H3C1.6,5.5,0.5,4.4,0.5,3v0c0-1.4,1.1-2.5,2.5-2.5h3V5.5z"/></g>
<g transform="translate(504,112) scale(4.8066666666667)"><path d="M3,5.5H0v-5h3c1.4,0,2.5,1.1,2.5,2.5v0C5.5,4.4,4.4,5.5,3,5.5z"/></g>
<g transform="translate(560,112) scale(4.8066666666667)"><path d="M6,5.5H3C1.6,5.5,0.5,4.4,0.5,3v0c0-1.4,1.1-2.5,2.5-2.5h3V5.5z"/></g>
<g transform="translate(588,112) scale(4.8066666666667)"><rect y="0.5" width="6" height="5"/></g>
<g transform="translate(616,112) scale(4.8066666666667)"><path d="M3,5.5H0v-5h3c1.4,0,2.5,1.1,2.5,2.5v0C5.5,4.4,4.4,5.5,3,5.5z"/></g>
<g transform="translate(364,140) scale(4.8066666666667)"><circle cx="3" cy="3" r="2.5"/></g>
<g transform="translate(448,140) scale(4.8066666666667)"><circle cx="3" cy="3" r="2.5"/></g>
<g transform="translate(504,140) scale(4.8066666666667)"><path d="M6,5.5H3C1.6,5.5,0.5,4.4,0.5,3v0c0-1.4,1.1-2.5,2.5-2.5h3V5.5z"/></g>
<g transform="translate(532,140) scale(4.8066666666667)"><path d="M3,5.5H0v-5h3c1.4,0,2.5,1.1,2.5,2.5v0C5.5,4.4,4.4,5.5,3,5.5z"/></g>
<g transform="translate(588,140) scale(4.8066666666667)"><circle cx="3" cy="3" r="2.5"/></g>
<g transform="translate(280,168) scale(4.8066666666667)"><circle cx="3" cy="3" r="2.5"/></g>
<g transform="translate(336,168) scale(4.8066666666667)"><path d="M6,5.5H3C1.6,5.5,0.5,4.4,0.5,3v0c0-1.4,1.1-2.5,2.5-2.5h3V5.5z"/></g>
<g transform="translate(364,168) scale(4.8066666666667)"><path d="M3,5.5H0v-5h3c1.4,0,2.5,1.1,2.5,2.5v0C5.5,4.4,4.4,5.5,3,5.5z"/></g>
<g transform="translate(420,168) scale(4.8066666666667)"><path d="M6,5.5H3C1.6,5.5,0.5,4.4,0.5,3v0c0-1.4,1.1-2.5,2.5-2.5h3V5.5z"/></g>
<g transform="translate(448,168) scale(4.8066666666667)"><rect y="0.5" width="6" height="5"/></g>
<g transform="translate(476,168) scale(4.8066666666667)"><path d="M3,5.5H0v-5h3c1.4,0,2.5,1.1,2.5,2.5v0C5.5,4.4,4.4,5.5,3,5.5z"/></g>
<g transform="translate(532,168) scale(4.8066666666667)"><path d="M6,5.5H3C1.6,5.5,0.5,4.4,0.5,3v0c0-1.4,1.1-2.5,2.5-2.5h3V5.5z"/></g>
<g transform="translate(560,168) scale(4.8066666666667)"><rect y="0.5" width="6" height="5"/></g>
<g transform="translate(588,168) scale(4.8066666666667)"><path d="M3,5.5H0v-5h3c1.4,0,2.5,1.1,2.5,2.5v0C5.5,4.4,4.4,5.5,3,5.5z"/></g>
<g transform="translate(280,196) scale(4.8066666666667)"><circle cx="3" cy="3" r="2.5"/></g>
<g transform="translate(364,196) scale(4.8066666666667)"><path d="M6,5.5H3C1.6,5.5,0.5,4.4,0.5,3v0c0-1.4,1.1-2.5,2.5-2.5h3V5.5z"/></g>
<g transform="translate(392,196) scale(4.8066666666667)"><path d="M3,5.5H0v-5h3c1.4,0,2.5,1.1,2.5,2.5v0C5.5,4.4,4.4,5.5,3,5.5z"/></g>
<g transform="translate(448,196) scale(4.8066666666667)"><path d="M6,5.5H3C1.6,5.5,0.5,4.4,0.5,3v0c0-1.4,1.1-2.5,2.5-2.5h3V5.5z"/></g>
<g transform="translate(476,196) scale(4.8066666666667)"><path d="M3,5.5H0v-5h3c1.4,0,2.5,1.1,2.5,2.5v0C5.5,4.4,4.4,5.5,3,5.5z"/></g>
<g transform="translate(616,196) scale(4.8066666666667)"><circle cx="3" cy="3" r="2.5"/></g>
<g transform="translate(280,224) scale(4.8066666666667)"><circle cx="3" cy="3" r="2.5"/></g>
<g transform="translate(336,224) scale(4.8066666666667)"><circle cx="3" cy="3" r="2.5"/></g>
<g transform="translate(392,224) scale(4.8066666666667)"><circle cx="3" cy="3" r="2.5"/></g>
<g transform="translate(448,224) scale(4.8066666666667)"><circle cx="3" cy="3" r="2.5"/></g>
<g transform="translate(504,224) scale(4.8066666666667)"><circle cx="3" cy="3" r="2.5"/></g>
<g transform="translate(560,224) scale(4.8066666666667)"><circle cx="3" cy="3" r="2.5"/></g>
<g transform="translate(616,224) scale(4.8066666666667)"><circle cx="3" cy="3" r="2.5"/></g>
<g transform="translate(364,252) scale(4.8066666666667)"><circle cx="3" cy="3" r="2.5"/></g>
<g transform="translate(420,252) scale(4.8066666666667)"><circle cx="3" cy="3" r="2.5"/></g>
<g transform="translate(588,252) scale(4.8066666666667)"><path d="M6,5.5H3C1.6,5.5,0.5,4.4,0.5,3v0c0-1.4,1.1-2.5,2.5-2.5h3V5.5z"/></g>
<g transform="translate(616,252) scale(4.8066666666667)"><path d="M3,5.5H0v-5h3c1.4,0,2.5,1.1,2.5,2.5v0C5.5,4.4,4.4,5.5,3,5.5z"/></g>
<g transform="translate(84,280) scale(4.8066666666667)"><path d="M6,5.5H3C1.6,5.5,0.5,4.4,0.5,3v0c0-1.4,1.1-2.5,2.5-2.5h3V5.5z"/></g>
<g transform="translate(112,280) scale(4.8066666666667)"><rect y="0.5" width="6" height="5"/></g>
<g transform="translate(140,280) scale(4.8066666666667)"><rect y="0.5" width="6" height="5"/></g>
<g transform="translate(168,280) scale(4.8066666666667)"><rect y="0.5" width="6" height="5"/></g>
<g transform="translate(196,280) scale(4.8066666666667)"><rect y="0.5" width="6" height="5"/></g>
<g transform="translate(224,280) scale(4.8066666666667)"><rect y="0.5" width="6" height="5"/></g>
<g transform="translate(252,280) scale(4.8066666666667)"><path d="M3,5.5H0v-5h3c1.4,0,2.5,1.1,2.5,2.5v0C5.5,4.4,4.4,5.5,3,5.5z"/></g>
<g transform="translate(308,280) scale(4.8066666666667)"><path d="M6,5.5H3C1.6,5.5,0.5,4.4,0.5,3v0c0-1.4,1.1-2.5,2.5-2.5h3V5.5z"/></g>
<g transform="translate(336,280) scale(4.8066666666667)"><path d="M3,5.5H0v-5h3c1.4,0,2.5,1.1,2.5,2.5v0C5.5,4.4,4.4,5.5,3,5.5z"/></g>
<g transform="translate(392,280) scale(4.8066666666667)"><path d="M6,5.5H3C1.6,5.5,0.5,4.4,0.5,3v0c0-1.4,1.1-2.5,2.5-2.5h3V5.5z"/></g>
<g transform="translate(420,280) scale(4.8066666666667)"><path d="M3,5.5H0v-5h3c1.4,0,2.5,1.1,2.5,2.5v0C5.5,4.4,4.4,5.5,3,5.5z"/></g>
<g transform="translate(476,280) scale(4.8066666666667)"><path d="M6,5.5H3C1.6,5.5,0.5,4.4,0.5,3v0c0-1.4,1.1-2.5,2.5-2.5h3V5.5z"/></g>
<g transform="translate(504,280) scale(4.8066666666667)"><path d="M3,5.5H0v-5h3c1.4,0,2.5,1.1,2.5,2.5v0C5.5,4.4,4.4,5.5,3,5.5z"/></g>
<g transform="translate(560,280) scale(4.8066666666667)"><circle cx="3" cy="3" r="2.5"/></g>
<g transform="translate(700,280) scale(4.8066666666667)"><path d="M6,5.5H3C1.6,5.5,0.5,4.4,0.5,3v0c0-1.4,1.1-2.5,2.5-2.5h3V5.5z"/></g>
<g transform="translate(728,280) scale(4.8066666666667)"><path d="M3,5.5H0v-5h3c1.4,0,2.5,1.1,2.5,2.5v0C5.5,4.4,4.4,5.5,3,5.5z"/></g>
<g transform="translate(840,280) scale(4.8066666666667)"><circle cx="3" cy="3" r="2.5"/></g>
<g transform="translate(84,308) scale(4.8066666666667)"><circle cx="3" cy="3" r="2.5"/></g>
<g transform="translate(140,308) scale(4.8066666666667)"><circle cx="3" cy="3" r="2.5"/></g>
<g transform="translate(280,308) scale(4.8066666666667)"><path d="M6,5.5H3C1.6,5.5,0.5,4.4,0.5,3v0c0-1.4,1.1-2.5,2.5-2.5h3V5.5z"/></g>
<g transform="translate(308,308) scale(4.8066666666667)"><path d="M3,5.5H0v-5h3c1.4,0,2.5,1.1,2.5,2.5v0C5.5,4.4,4.4,5.5,3,5.5z"/></g>
<g transform="translate(364,308) scale(4.8066666666667)"><circle cx="3" cy="3" r="2.5"/></g>
<g transform="translate(420,308) scale(4.8066666666667)"><circle cx="3" cy="3" r="2.5"/></g>
<g transform="translate(476,308) scale(4.8066666666667)"><path d="M6,5.5H3C1.6,5.5,0.5,4.4,0.5,3v0c0-1.4,1.1-2.5,2.5-2.5h3V5.5z"/></g>
<g transform="translate(504,308) scale(4.8066666666667)"><rect y="0.5" width="6" height="5"/></g>
<g transform="translate(532,308) scale(4.8066666666667)"><rect y="0.5" width="6" height="5"/></g>
<g transform="translate(560,308) scale(4.8066666666667)"><rect y="0.5" width="6" height="5"/></g>
<g transform="translate(588,308) scale(4.8066666666667)"><rect y="0.5" width="6" height="5"/></g>
<g transform="translate(616,308) scale(4.8066666666667)"><path d="M3,5.5H0v-5h3c1.4,0,2.5,1.1,2.5,2.5v0C5.5,4.4,4.4,5.5,3,5.5z"/></g>
<g transform="translate(672,308) scale(4.8066666666667)"><circle cx="3" cy="3" r="2.5"/></g>
<g transform="translate(728,308) scale(4.8066666666667)"><circle cx="3" cy="3" r="2.5"/></g>
<g transform="translate(784,308) scale(4.8066666666667)"><circle cx="3" cy="3" r="2.5"/></g>
<g transform="translate(840,308) scale(4.8066666666667)"><circle cx="3" cy="3" r="2.5"/></g>
<g transform="translate(56,336) scale(4.8066666666667)"><path d="M6,5.5H3C1.6,5.5,0.5,4.4,0.5,3v0c0-1.4,1.1-2.5,2.5-2.5h3V5.5z"/></g>
<g transform="translate(84,336) scale(4.8066666666667)"><rect y="0.5" width="6" height="5"/></g>
<g transform="translate(112,336) scale(4.8066666666667)"><rect y="0.5" width="6" height="5"/></g>
<g transform="translate(140,336) scale(4.8066666666667)"><rect y="0.5" width="6" height="5"/></g>
<g transform="translate(168,336) scale(4.8066666666667)"><rect y="0.5" width="6" height="5"/></g>
<g transform="translate(196,336) scale(4.8066666666667)"><rect y="0.5" width="6" height="5"/></g>
<g transform="translate(224,336) scale(4.8066666666667)"><rect y="0.5" width="6" height="5"/></g>
<g transform="translate(252,336) scale(4.8066666666667)"><path d="M3,5.5H0v-5h3c1.4,0,2.5,1.1,2.5,2.5v0C5.5,4.4,4.4,5.5,3,5.5z"/></g>
<g transform="translate(364,336) scale(4.8066666666667)"><circle cx="3" cy="3" r="2.5"/></g>
<g transform="translate(448,336) scale(4.8066666666667)"><circle cx="3" cy="3" r="2.5"/></g>
<g transform="translate(560,336) scale(4.8066666666667)"><circle cx="3" cy="3" r="2.5"/></g>
<g transform="translate(616,336) scale(4.8066666666667)"><circle cx="3" cy="3" r="2.5"/></g>
<g transform="translate(672,336) scale(4.8066666666667)"><circle cx="3" cy="3" r="2.5"/></g>
<g transform="translate(56,364) scale(4.8066666666667)"><circle cx="3" cy="3" r="2.5"/></g>
<g transform="translate(112,364) scale(4.8066666666667)"><circle cx="3" cy="3" r="2.5"/></g>
<g transform="translate(280,364) scale(4.8066666666667)"><circle cx="3" cy="3" r="2.5"/></g>
<g transform="translate(336,364) scale(4.8066666666667)"><circle cx="3" cy="3" r="2.5"/></g>
<g transform="translate(392,364) scale(4.8066666666667)"><path d="M6,5.5H3C1.6,5.5,0.5,4.4,0.5,3v0c0-1.4,1.1-2.5,2.5-2.5h3V5.5z"/></g>
<g transform="translate(420,364) scale(4.8066666666667)"><path d="M3,5.5H0v-5h3c1.4,0,2.5,1.1,2.5,2.5v0C5.5,4.4,4.4,5.5,3,5.5z"/></g>
<g transform="translate(476,364) scale(4.8066666666667)"><circle cx="3" cy="3" r="2.5"/></g>
<g transform="translate(560,364) scale(4.8066666666667)"><path d="M6,5.5H3C1.6,5.5,0.5,4.4,0.5,3v0c0-1.4,1.1-2.5,2.5-2.5h3V5.5z"/></g>
<g transform="translate(588,364) scale(4.8066666666667)"><path d="M3,5.5H0v-5h3c1.4,0,2.5,1.1,2.5,2.5v0C5.5,4.4,4.4,5.5,3,5.5z"/></g>
<g transform="translate(672,364) scale(4.8066666666667)"><circle cx="3" cy="3" r="2.5"/></g>
<g transform="translate(728,364) scale(4.8066666666667)"><path d="M6,5.5H3C1.6,5.5,0.5,4.4,0.5,3v0c0-1.4,1.1-2.5,2.5-2.5h3V5.5z"/></g>
<g transform="translate(756,364) scale(4.8066666666667)"><path d="M3,5.5H0v-5h3c1.4,0,2.5,1.1,2.5,2.5v0C5.5,4.4,4.4,5.5,3,5.5z"/></g>
<g transform="translate(812,364) scale(4.8066666666667)"><circle cx="3" cy="3" r="2.5"/></g>
<g transform="translate(84,392) scale(4.8066666666667)"><circle cx="3" cy="3" r="2.5"/></g>
<g transform="translate(140,392) scale(4.8066666666667)"><circle cx="3" cy="3" r="2.5"/></g>
<g transform="translate(196,392) scale(4.8066666666667)"><path d="M6,5.5H3C1.6,5.5,0.5,4.4,0.5,3v0c0-1.4,1.1-2.5,2.5-2.5h3V5.5z"/></g>
<g transform="translate(224,392) scale(4.8066666666667)"><rect y="0.5" width="6" height="5"/></g>
<g transform="translate(252,392) scale(4.8066666666667)"><rect y="0.5" width="6" height="5"/></g>
<g transform="translate(280,392) scale(4.8066666666667)"><path d="M3,5.5H0v-5h3c1.4,0,2.5,1.1,2.5,2.5v0C5.5,4.4,4.4,5.5,3,5.5z"/></g>
<g transform="translate(336,392) scale(4.8066666666667)"><path d="M6,5.5H3C1.6,5.5,0.5,4.4,0.5,3v0c0-1.4,1.1-2.5,2.5-2.5h3V5.5z"/></g>
<g transform="translate(364,392) scale(4.8066666666667)"><path d="M3,5.5H0v-5h3c1.4,0,2.5,1.1,2.5,2.5v0C5.5,4.4,4.4,5.5,3,5.5z"/></g>
<g transform="translate(420,392) scale(4.8066666666667)"><path d="M6,5.5H3C1.6,5.5,0.5,4.4,0.5,3v0c0-1.4,1.1-2.5,2.5-2.5h3V5.5z"/></g>
<g transform="translate(448,392) scale(4.8066666666667)"><path d="M3,5.5H0v-5h3c1.4,0,2.5,1.1,2.5,2.5v0C5.5,4.4,4.4,5.5,3,5.5z"/></g>
<g transform="translate(504,392) scale(4.8066666666667)"><path d="M6,5.5H3C1.6,5.5,0.5,4.4,0.5,3v0c0-1.4,1.1-2.5,2.5-2.5h3V5.5z"/></g>
<g transform="translate(532,392) scale(4.8066666666667)"><path d="M3,5.5H0v-5h3c1.4,0,2.5,1.1,2.5,2.5v0C5.5,4.4,4.4,5.5,3,5.5z"/></g>
<g transform="translate(616,392) scale(4.8066666666667)"><path d="M6,5.5H3C1.6,5.5,0.5,4.4,0.5,3v0c0-1.4,1.1-2.5,2.5-2.5h3V5.5z"/></g>
<g transform="translate(644,392) scale(4.8066666666667)"><path d="M3,5.5H0v-5h3c1.4,0,2.5,1.1,2.5,2.5v0C5.5,4.4,4.4,5.5,3,5.5z"/></g>
<g transform="translate(784,392) scale(4.8066666666667)"><path d="M6,5.5H3C1.6,5.5,0.5,4.4,0.5,3v0c0-1.4,1.1-2.5,2.5-2.5h3V5.5z"/></g>
<g transform="translate(812,392) scale(4.8066666666667)"><rect y="0.5" width="6" height="5"/></g>
<g transform="translate(840,392) scale(4.8066666666667)"><path d="M3,5.5H0v-5h3c1.4,0,2.5,1.1,2.5,2.5v0C5.5,4.4,4.4,5.5,3,5.5z"/></g>
<g transform="translate(84,420) scale(4.8066666666667)"><path d="M6,5.5H3C1.6,5.5,0.5,4.4,0.5,3v0c0-1.4,1.1-2.5,2.5-2.5h3V5.5z"/></g>
<g transform="translate(112,420) scale(4.8066666666667)"><path d="M3,5.5H0v-5h3c1.4,0,2.5,1.1,2.5,2.5v0C5.5,4.4,4.4,5.5,3,5.5z"/></g>
<g transform="translate(252,420) scale(4.8066666666667)"><path d="M6,5.5H3C1.6,5.5,0.5,4.4,0.5,3v0c0-1.4,1.1-2.5,2.5-2.5h3V5.5z"/></g>
<g transform="translate(280,420) scale(4.8066666666667)"><path d="M3,5.5H0v-5h3c1.4,0,2.5,1.1,2.5,2.5v0C5.5,4.4,4.4,5.5,3,5.5z"/></g>
<g transform="translate(336,420) scale(4.8066666666667)"><circle cx="3" cy="3" r="2.5"/></g>
<g transform="translate(420,420) scale(4.8066666666667)"><path d="M6,5.5H3C1.6,5.5,0.5,4.4,0.5,3v0c0-1.4,1.1-2.5,2.5-2.5h3V5.5z"/></g>
<g transform="translate(448,420) scale(4.8066666666667)"><path d="M3,5.5H0v-5h3c1.4,0,2.5,1.1,2.5,2.5v0C5.5,4.4,4.4,5.5,3,5.5z"/></g>
<g transform="translate(532,420) scale(4.8066666666667)"><path d="M6,5.5H3C1.6,5.5,0.5,4.4,0.5,3v0c0-1.4,1.1-2.5,2.5-2.5h3V5.5z"/></g>
<g transform="translate(560,420) scale(4.8066666666667)"><rect y="0.5" width="6" height="5"/></g>
<g transform="translate(588,420) scale(4.8066666666667)"><rect y="0.5" width="6" height="5"/></g>
<g transform="translate(616,420) scale(4.8066666666667)"><rect y="0.5" width="6" height="5"/></g>
<g transform="translate(644,420) scale(4.8066666666667)"><rect y="0.5" width="6" height="5"/></g>
<g transform="translate(672,420) scale(4.8066666666667)"><path d="M3,5.5H0v-5h3c1.4,0,2.5,1.1,2.5,2.5v0C5.5,4.4,4.4,5.5,3,5.5z"/></g>
<g transform="translate(728,420) scale(4.8066666666667)"><path d="M6,5.5H3C1.6,5.5,0.5,4.4,0.5,3v0c0-1.4,1.1-2.5,2.5-2.5h3V5.5z"/></g>
<g transform="translate(756,420) scale(4.8066666666667)"><path d="M3,5.5H0v-5h3c1.4,0,2.5,1.1,2.5,2.5v0C5.5,4.4,4.4,5.5,3,5.5z"/></g>
<g transform="translate(812,420) scale(4.8066666666667)"><path d="M6,5.5H3C1.6,5.5,0.5,4.4,0.5,3v0c0-1.4,1.1-2.5,2.5-2.5h3V5.5z"/></g>
<g transform="translate(840,420) scale(4.8066666666667)"><path d="M3,5.5H0v-5h3c1.4,0,2.5,1.1,2.5,2.5v0C5.5,4.4,4.4,5.5,3,5.5z"/></g>
<g transform="translate(84,448) scale(4.8066666666667)"><path d="M6,5.5H3C1.6,5.5,0.5,4.4,0.5,3v0c0-1.4,1.1-2.5,2.5-2.5h3V5.5z"/></g>
<g transform="translate(112,448) scale(4.8066666666667)"><rect y="0.5" width="6" height="5"/></g>
<g transform="translate(140,448) scale(4.8066666666667)"><path d="M3,5.5H0v-5h3c1.4,0,2.5,1.1,2.5,2.5v0C5.5,4.4,4.4,5.5,3,5.5z"/></g>
<g transform="translate(224,448) scale(4.8066666666667)"><path d="M6,5.5H3C1.6,5.5,0.5,4.4,0.5,3v0c0-1.4,1.1-2.5,2.5-2.5h3V5.5z"/></g>
<g transform="translate(252,448) scale(4.8066666666667)"><path d="M3,5.5H0v-5h3c1.4,0,2.5,1.1,2.5,2.5v0C5.5,4.4,4.4,5.5,3,5.5z"/></g>
<g transform="translate(392,448) scale(4.8066666666667)"><path d="M6,5.5H3C1.6,5.5,0.5,4.4,0.5,3v0c0-1.4,1.1-2.5,2.5-2.5h3V5.5z"/></g>
<g transform="translate(420,448) scale(4.8066666666667)"><rect y="0.5" width="6" height="5"/></g>
<g transform="translate(448,448) scale(4.8066666666667)"><path d="M3,5.5H0v-5h3c1.4,0,2.5,1.1,2.5,2.5v0C5.5,4.4,4.4,5.5,3,5.5z"/></g>
<g transform="translate(504,448) scale(4.8066666666667)"><path d="M6,5.5H3C1.6,5.5,0.5,4.4,0.5,3v0c0-1.4,1.1-2.5,2.5-2.5h3V5.5z"/></g>
<g transform="translate(532,448) scale(4.8066666666667)"><path d="M3,5.5H0v-5h3c1.4,0,2.5,1.1,2.5,2.5v0C5.5,4.4,4.4,5.5,3,5.5z"/></g>
<g transform="translate(616,448) scale(4.8066666666667)"><path d="M6,5.5H3C1.6,5.5,0.5,4.4,0.5,3v0c0-1.4,1.1-2.5,2.5-2.5h3V5.5z"/></g>
<g transform="translate(644,448) scale(4.8066666666667)"><path d="M3,5.5H0v-5h3c1.4,0,2.5,1.1,2.5,2.5v0C5.5,4.4,4.4,5.5,3,5.5z"/></g>
<g transform="translate(56,476) scale(4.8066666666667)"><path d="M6,5.5H3C1.6,5.5,0.5,4.4,0.5,3v0c0-1.4,1.1-2.5,2.5-2.5h3V5.5z"/></g>
<g transform="translate(84,476) scale(4.8066666666667)"><path d="M3,5.5H0v-5h3c1.4,0,2.5,1.1,2.5,2.5v0C5.5,4.4,4.4,5.5,3,5.5z"/></g>
<g transform="translate(168,476) scale(4.8066666666667)"><circle cx="3" cy="3" r="2.5"/></g>
<g transform="translate(280,476) scale(4.8066666666667)"><path d="M6,5.5H3C1.6,5.5,0.5,4.4,0.5,3v0c0-1.4,1.1-2.5,2.5-2.5h3V5.5z"/></g>
<g transform="translate(308,476) scale(4.8066666666667)"><path d="M3,5.5H0v-5h3c1.4,0,2.5,1.1,2.5,2.5v0C5.5,4.4,4.4,5.5,3,5.5z"/></g>
<g transform="translate(392,476) scale(4.8066666666667)"><circle cx="3" cy="3" r="2.5"/></g>
<g transform="translate(476,476) scale(4.8066666666667)"><path d="M6,5.5H3C1.6,5.5,0.5,4.4,0.5,3v0c0-1.4,1.1-2.5,2.5-2.5h3V5.5z"/></g>
<g transform="translate(504,476) scale(4.8066666666667)"><rect y="0.5" width="6" height="5"/></g>
<g transform="translate(532,476) scale(4.8066666666667)"><rect y="0.5" width="6" height="5"/></g>
<g transform="translate(560,476) scale(4.8066666666667)"><rect y="0.5" width="6" height="5"/></g>
<g transform="translate(588,476) scale(4.8066666666667)"><rect y="0.5" width="6" height="5"/></g>
<g transform="translate(616,476) scale(4.8066666666667)"><rect y="0.5" width="6" height="5"/></g>
<g transform="translate(644,476) scale(4.8066666666667)"><rect y="0.5" width="6" height="5"/></g>
<g transform="translate(672,476) scale(4.8066666666667)"><path d="M3,5.5H0v-5h3c1.4,0,2.5,1.1,2.5,2.5v0C5.5,4.4,4.4,5.5,3,5.5z"/></g>
<g transform="translate(756,476) scale(4.8066666666667)"><circle cx="3" cy="3" r="2.5"/></g>
<g transform="translate(840,476) scale(4.8066666666667)"><circle cx="3" cy="3" r="2.5"/></g>
<g transform="translate(84,504) scale(4.8066666666667)"><circle cx="3" cy="3" r="2.5"/></g>
<g transform="translate(140,504) scale(4.8066666666667)"><path d="M6,5.5H3C1.6,5.5,0.5,4.4,0.5,3v0c0-1.4,1.1-2.5,2.5-2.5h3V5.5z"/></g>
<g transform="translate(168,504) scale(4.8066666666667)"><path d="M3,5.5H0v-5h3c1.4,0,2.5,1.1,2.5,2.5v0C5.5,4.4,4.4,5.5,3,5.5z"/></g>
<g transform="translate(224,504) scale(4.8066666666667)"><circle cx="3" cy="3" r="2.5"/></g>
<g transform="translate(280,504) scale(4.8066666666667)"><path d="M6,5.5H3C1.6,5.5,0.5,4.4,0.5,3v0c0-1.4,1.1-2.5,2.5-2.5h3V5.5z"/></g>
<g transform="translate(308,504) scale(4.8066666666667)"><path d="M3,5.5H0v-5h3c1.4,0,2.5,1.1,2.5,2.5v0C5.5,4.4,4.4,5.5,3,5.5z"/></g>
<g transform="translate(364,504) scale(4.8066666666667)"><path d="M6,5.5H3C1.6,5.5,0.5,4.4,0.5,3v0c0-1.4,1.1-2.5,2.5-2.5h3V5.5z"/></g>
<g transform="translate(392,504) scale(4.8066666666667)"><rect y="0.5" width="6" height="5"/></g>
<g transform="translate(420,504) scale(4.8066666666667)"><rect y="0.5" width="6" height="5"/></g>
<g transform="translate(448,504) scale(4.8066666666667)"><rect y="0.5" width="6" height="5"/></g>
<g transform="translate(476,504) scale(4.8066666666667)"><rect y="0.5" width="6" height="5"/></g>
<g transform="translate(504,504) scale(4.8066666666667)"><path d="M3,5.5H0v-5h3c1.4,0,2.5,1.1,2.5,2.5v0C5.5,4.4,4.4,5.5,3,5.5z"/></g>
<g transform="translate(644,504) scale(4.8066666666667)"><circle cx="3" cy="3" r="2.5"/></g>
<g transform="translate(700,504) scale(4.8066666666667)"><circle cx="3" cy="3" r="2.5"/></g>
<g transform="translate(756,504) scale(4.8066666666667)"><path d="M6,5.5H3C1.6,5.5,0.5,4.4,0.5,3v0c0-1.4,1.1-2.5,2.5-2.5h3V5.5z"/></g>
<g transform="translate(784,504) scale(4.8066666666667)"><rect y="0.5" width="6" height="5"/></g>
<g transform="translate(812,504) scale(4.8066666666667)"><path d="M3,5.5H0v-5h3c1.4,0,2.5,1.1,2.5,2.5v0C5.5,4.4,4.4,5.5,3,5.5z"/></g>
<g transform="translate(56,532) scale(4.8066666666667)"><circle cx="3" cy="3" r="2.5"/></g>
<g transform="translate(168,532) scale(4.8066666666667)"><circle cx="3" cy="3" r="2.5"/></g>
<g transform="translate(252,532) scale(4.8066666666667)"><circle cx="3" cy="3" r="2.5"/></g>
<g transform="translate(336,532) scale(4.8066666666667)"><path d="M6,5.5H3C1.6,5.5,0.5,4.4,0.5,3v0c0-1.4,1.1-2.5,2.5-2.5h3V5.5z"/></g>
<g transform="translate(364,532) scale(4.8066666666667)"><path d="M3,5.5H0v-5h3c1.4,0,2.5,1.1,2.5,2.5v0C5.5,4.4,4.4,5.5,3,5.5z"/></g>
<g transform="translate(420,532) scale(4.8066666666667)"><path d="M6,5.5H3C1.6,5.5,0.5,4.4,0.5,3v0c0-1.4,1.1-2.5,2.5-2.5h3V5.5z"/></g>
<g transform="translate(448,532) scale(4.8066666666667)"><rect y="0.5" width="6" height="5"/></g>
<g transform="translate(476,532) scale(4.8066666666667)"><path d="M3,5.5H0v-5h3c1.4,0,2.5,1.1,2.5,2.5v0C5.5,4.4,4.4,5.5,3,5.5z"/></g>
<g transform="translate(532,532) scale(4.8066666666667)"><path d="M6,5.5H3C1.6,5.5,0.5,4.4,0.5,3v0c0-1.4,1.1-2.5,2.5-2.5h3V5.5z"/></g>
<g transform="translate(560,532) scale(4.8066666666667)"><rect y="0.5" width="6" height="5"/></g>
<g transform="translate(588,532) scale(4.8066666666667)"><rect y="0.5" width="6" height="5"/></g>
<g transform="translate(616,532) scale(4.8066666666667)"><path d="M3,5.5H0v-5h3c1.4,0,2.5,1.1,2.5,2.5v0C5.5,4.4,4.4,5.5,3,5.5z"/></g>
<g transform="translate(672,532) scale(4.8066666666667)"><circle cx="3" cy="3" r="2.5"/></g>
<g transform="translate(728,532) scale(4.8066666666667)"><path d="M6,5.5H3C1.6,5.5,0.5,4.4,0.5,3v0c0-1.4,1.1-2.5,2.5-2.5h3V5.5z"/></g>
<g transform="translate(756,532) scale(4.8066666666667)"><rect y="0.5" width="6" height="5"/></g>
<g transform="translate(784,532) scale(4.8066666666667)"><rect y="0.5" width="6" height="5"/></g>
<g transform="translate(812,532) scale(4.8066666666667)"><rect y="0.5" width="6" height="5"/></g>
<g transform="translate(840,532) scale(4.8066666666667)"><path d="M3,5.5H0v-5h3c1.4,0,2.5,1.1,2.5,2.5v0C5.5,4.4,4.4,5.5,3,5.5z"/></g>
<g transform="translate(56,560) scale(4.8066666666667)"><circle cx="3" cy="3" r="2.5"/></g>
<g transform="translate(112,560) scale(4.8066666666667)"><circle cx="3" cy="3" r="2.5"/></g>
<g transform="translate(224,560) scale(4.8066666666667)"><circle cx="3" cy="3" r="2.5"/></g>
<g transform="translate(280,560) scale(4.8066666666667)"><path d="M6,5.5H3C1.6,5.5,0.5,4.4,0.5,3v0c0-1.4,1.1-2.5,2.5-2.5h3V5.5z"/></g>
<g transform="translate(308,560) scale(4.8066666666667)"><rect y="0.5" width="6" height="5"/></g>
<g transform="translate(336,560) scale(4.8066666666667)"><rect y="0.5" width="6" height="5"/></g>
<g transform="translate(364,560) scale(4.8066666666667)"><path d="M3,5.5H0v-5h3c1.4,0,2.5,1.1,2.5,2.5v0C5.5,4.4,4.4,5.5,3,5.5z"/></g>
<g transform="translate(420,560) scale(4.8066666666667)"><path d="M6,5.5H3C1.6,5.5,0.5,4.4,0.5,3v0c0-1.4,1.1-2.5,2.5-2.5h3V5.5z"/></g>
<g transform="translate(448,560) scale(4.8066666666667)"><rect y="0.5" width="6" height="5"/></g>
<g transform="translate(476,560) scale(4.8066666666667)"><rect y="0.5" width="6" height="5"/></g>
<g transform="translate(504,560) scale(4.8066666666667)"><rect y="0.5" width="6" height="5"/></g>
<g transform="translate(532,560) scale(4.8066666666667)"><path d="M3,5.5H0v-5h3c1.4,0,2.5,1.1,2.5,2.5v0C5.5,4.4,4.4,5.5,3,5.5z"/></g>
<g transform="translate(672,560) scale(4.8066666666667)"><circle cx="3" cy="3" r="2.5"/></g>
<g transform="translate(728,560) scale(4.8066666666667)"><path d="M6,5.5H3C1.6,5.5,0.5,4.4,0.5,3v0c0-1.4,1.1-2.5,2.5-2.5h3V5.5z"/></g>
<g transform="translate(756,560) scale(4.8066666666667)"><rect y="0.5" width="6" height="5"/></g>
<g transform="translate(784,560) scale(4.8066666666667)"><path d="M3,5.5H0v-5h3c1.4,0,2.5,1.1,2.5,2.5v0C5.5,4.4,4.4,5.5,3,5.5z"/></g>
<g transform="translate(56,588) scale(4.8066666666667)"><circle cx="3" cy="3" r="2.5"/></g>
<g transform="translate(112,588) scale(4.8066666666667)"><circle cx="3" cy="3" r="2.5"/></g>
<g transform="translate(196,588) scale(4.8066666666667)"><circle cx="3" cy="3" r="2.5"/></g>
<g transform="translate(252,588) scale(4.8066666666667)"><circle cx="3" cy="3" r="2.5"/></g>
<g transform="translate(336,588) scale(4.8066666666667)"><path d="M6,5.5H3C1.6,5.5,0.5,4.4,0.5,3v0c0-1.4,1.1-2.5,2.5-2.5h3V5.5z"/></g>
<g transform="translate(364,588) scale(4.8066666666667)"><rect y="0.5" width="6" height="5"/></g>
<g transform="translate(392,588) scale(4.8066666666667)"><path d="M3,5.5H0v-5h3c1.4,0,2.5,1.1,2.5,2.5v0C5.5,4.4,4.4,5.5,3,5.5z"/></g>
<g transform="translate(476,588) scale(4.8066666666667)"><circle cx="3" cy="3" r="2.5"/></g>
<g transform="translate(588,588) scale(4.8066666666667)"><path d="M6,5.5H3C1.6,5.5,0.5,4.4,0.5,3v0c0-1.4,1.1-2.5,2.5-2.5h3V5.5z"/></g>
<g transform="translate(616,588) scale(4.8066666666667)"><path d="M3,5.5H0v-5h3c1.4,0,2.5,1.1,2.5,2.5v0C5.5,4.4,4.4,5.5,3,5.5z"/></g>
<g transform="translate(672,588) scale(4.8066666666667)"><path d="M6,5.5H3C1.6,5.5,0.5,4.4,0.5,3v0c0-1.4,1.1-2.5,2.5-2.5h3V5.5z"/></g>
<g transform="translate(700,588) scale(4.8066666666667)"><path d="M3,5.5H0v-5h3c1.4,0,2.5,1.1,2.5,2.5v0C5.5,4.4,4.4,5.5,3,5.5z"/></g>
<g transform="translate(756,588) scale(4.8066666666667)"><circle cx="3" cy="3" r="2.5"/></g>
<g transform="translate(812,588) scale(4.8066666666667)"><circle cx="3" cy="3" r="2.5"/></g>
<g transform="translate(56,616) scale(4.8066666666667)"><circle cx="3" cy="3" r="2.5"/></g>
<g transform="translate(140,616) scale(4.8066666666667)"><path d="M6,5.5H3C1.6,5.5,0.5,4.4,0.5,3v0c0-1.4,1.1-2.5,2.5-2.5h3V5.5z"/></g>
<g transform="translate(168,616) scale(4.8066666666667)"><path d="M3,5.5H0v-5h3c1.4,0,2.5,1.1,2.5,2.5v0C5.5,4.4,4.4,5.5,3,5.5z"/></g>
<g transform="translate(224,616) scale(4.8066666666667)"><path d="M6,5.5H3C1.6,5.5,0.5,4.4,0.5,3v0c0-1.4,1.1-2.5,2.5-2.5h3V5.5z"/></g>
<g transform="translate(252,616) scale(4.8066666666667)"><rect y="0.5" width="6" height="5"/></g>
<g transform="translate(280,616) scale(4.8066666666667)"><path d="M3,5.5H0v-5h3c1.4,0,2.5,1.1,2.5,2.5v0C5.5,4.4,4.4,5.5,3,5.5z"/></g>
<g transform="translate(336,616) scale(4.8066666666667)"><circle cx="3" cy="3" r="2.5"/></g>
<g transform="translate(448,616) scale(4.8066666666667)"><path d="M6,5.5H3C1.6,5.5,0.5,4.4,0.5,3v0c0-1.4,1.1-2.5,2.5-2.5h3V5.5z"/></g>
<g transform="translate(476,616) scale(4.8066666666667)"><rect y="0.5" width="6" height="5"/></g>
<g transform="translate(504,616) scale(4.8066666666667)"><rect y="0.5" width="6" height="5"/></g>
<g transform="translate(532,616) scale(4.8066666666667)"><path d="M3,5.5H0v-5h3c1.4,0,2.5,1.1,2.5,2.5v0C5.5,4.4,4.4,5.5,3,5.5z"/></g>
<g transform="translate(588,616) scale(4.8066666666667)"><path d="M6,5.5H3C1.6,5.5,0.5,4.4,0.5,3v0c0-1.4,1.1-2.5,2.5-2.5h3V5.5z"/></g>
<g transform="translate(616,616) scale(4.8066666666667)"><rect y="0.5" width="6" height="5"/></g>
<g transform="translate(644,616) scale(4.8066666666667)"><rect y="0.5" width="6" height="5"/></g>
<g transform="translate(672,616) scale(4.8066666666667)"><rect y="0.5" width="6" height="5"/></g>
<g transform="translate(700,616) scale(4.8066666666667)"><rect y="0.5" width="6" height="5"/></g>
<g transform="translate(728,616) scale(4.8066666666667)"><path d="M3,5.5H0v-5h3c1.4,0,2.5,1.1,2.5,2.5v0C5.5,4.4,4.4,5.5,3,5.5z"/></g>
<g transform="translate(784,616) scale(4.8066666666667)"><circle cx="3" cy="3" r="2.5"/></g>
<g transform="translate(840,616) scale(4.8066666666667)"><circle cx="3" cy="3" r="2.5"/></g>
<g transform="translate(280,644) scale(4.8066666666667)"><path d="M6,5.5H3C1.6,5.5,0.5,4.4,0.5,3v0c0-1.4,1.1-2.5,2.5-2.5h3V5.5z"/></g>
<g transform="translate(308,644) scale(4.8066666666667)"><rect y="0.5" width="6" height="5"/></g>
<g transform="translate(336,644) scale(4.8066666666667)"><path d="M3,5.5H0v-5h3c1.4,0,2.5,1.1,2.5,2.5v0C5.5,4.4,4.4,5.5,3,5.5z"/></g>
<g transform="translate(392,644) scale(4.8066666666667)"><circle cx="3" cy="3" r="2.5"/></g>
<g transform="translate(448,644) scale(4.8066666666667)"><circle cx="3" cy="3" r="2.5"/></g>
<g transform="translate(504,644) scale(4.8066666666667)"><circle cx="3" cy="3" r="2.5"/></g>
<g transform="translate(560,644) scale(4.8066666666667)"><path d="M6,5.5H3C1.6,5.5,0.5,4.4,0.5,3v0c0-1.4,1.1-2.5,2.5-2.5h3V5.5z"/></g>
<g transform="translate(588,644) scale(4.8066666666667)"><rect y="0.5" width="6" height="5"/></g>
<g transform="translate(616,644) scale(4.8066666666667)"><path d="M3,5.5H0v-5h3c1.4,0,2.5,1.1,2.5,2.5v0C5.5,4.4,4.4,5.5,3,5.5z"/></g>
<g transform="translate(728,644) scale(4.8066666666667)"><path d="M6,5.5H3C1.6,5.5,0.5,4.4,0.5,3v0c0-1.4,1.1-2.5,2.5-2.5h3V5.5z"/></g>
<g transform="translate(756,644) scale(4.8066666666667)"><path d="M3,5.5H0v-5h3c1.4,0,2.5,1.1,2.5,2.5v0C5.5,4.4,4.4,5.5,3,5.5z"/></g>
<g transform="translate(812,644) scale(4.8066666666667)"><path d="M6,5.5H3C1.6,5.5,0.5,4.4,0.5,3v0c0-1.4,1.1-2.5,2.5-2.5h3V5.5z"/></g>
<g transform="translate(840,644) scale(4.8066666666667)"><path d="M3,5.5H0v-5h3c1.4,0,2.5,1.1,2.5,2.5v0C5.5,4.4,4.4,5.5,3,5.5z"/></g>
<g transform="translate(280,672) scale(4.8066666666667)"><path d="M6,5.5H3C1.6,5.5,0.5,4.4,0.5,3v0c0-1.4,1.1-2.5,2.5-2.5h3V5.5z"/></g>
<g transform="translate(308,672) scale(4.8066666666667)"><rect y="0.5" width="6" height="5"/></g>
<g transform="translate(336,672) scale(4.8066666666667)"><path d="M3,5.5H0v-5h3c1.4,0,2.5,1.1,2.5,2.5v0C5.5,4.4,4.4,5.5,3,5.5z"/></g>
<g transform="translate(420,672) scale(4.8066666666667)"><path d="M6,5.5H3C1.6,5.5,0.5,4.4,0.5,3v0c0-1.4,1.1-2.5,2.5-2.5h3V5.5z"/></g>
<g transform="translate(448,672) scale(4.8066666666667)"><rect y="0.5" width="6" height="5"/></g>
<g transform="translate(476,672) scale(4.8066666666667)"><rect y="0.5" width="6" height="5"/></g>
<g transform="translate(504,672) scale(4.8066666666667)"><path d="M3,5.5H0v-5h3c1.4,0,2.5,1.1,2.5,2.5v0C5.5,4.4,4.4,5.5,3,5.5z"/></g>
<g transform="translate(560,672) scale(4.8066666666667)"><path d="M6,5.5H3C1.6,5.5,0.5,4.4,0.5,3v0c0-1.4,1.1-2.5,2.5-2.5h3V5.5z"/></g>
<g transform="translate(588,672) scale(4.8066666666667)"><rect y="0.5" width="6" height="5"/></g>
<g transform="translate(616,672) scale(4.8066666666667)"><path d="M3,5.5H0v-5h3c1.4,0,2.5,1.1,2.5,2.5v0C5.5,4.4,4.4,5.5,3,5.5z"/></g>
<g transform="translate(672,672) scale(4.8066666666667)"><circle cx="3" cy="3" r="2.5"/></g>
<g transform="translate(728,672) scale(4.8066666666667)"><circle cx="3" cy="3" r="2.5"/></g>
<g transform="translate(280,700) scale(4.8066666666667)"><path d="M6,5.5H3C1.6,5.5,0.5,4.4,0.5,3v0c0-1.4,1.1-2.5,2.5-2.5h3V5.5z"/></g>
<g transform="translate(308,700) scale(4.8066666666667)"><rect y="0.5" width="6" height="5"/></g>
<g transform="translate(336,700) scale(4.8066666666667)"><path d="M3,5.5H0v-5h3c1.4,0,2.5,1.1,2.5,2.5v0C5.5,4.4,4.4,5.5,3,5.5z"/></g>
<g transform="translate(392,700) scale(4.8066666666667)"><circle cx="3" cy="3" r="2.5"/></g>
<g transform="translate(448,700) scale(4.8066666666667)"><path d="M6,5.5H3C1.6,5.5,0.5,4.4,0.5,3v0c0-1.4,1.1-2.5,2.5-2.5h3V5.5z"/></g>
<g transform="translate(476,700) scale(4.8066666666667)"><rect y="0.5" width="6" height="5"/></g>
<g transform="translate(504,700) scale(4.8066666666667)"><path d="M3,5.5H0v-5h3c1.4,0,2.5,1.1,2.5,2.5v0C5.5,4.4,4.4,5.5,3,5.5z"/></g>
<g transform="translate(588,700) scale(4.8066666666667)"><path d="M6,5.5H3C1.6,5.5,0.5,4.4,0.5,3v0c0-1.4,1.1-2.5,2.5-2.5h3V5.5z"/></g>
<g transform="translate(616,700) scale(4.8066666666667)"><path d="M3,5.5H0v-5h3c1.4,0,2.5,1.1,2.5,2.5v0C5.5,4.4,4.4,5.5,3,5.5z"/></g>
<g transform="translate(728,700) scale(4.8066666666667)"><path d="M6,5.5H3C1.6,5.5,0.5,4.4,0.5,3v0c0-1.4,1.1-2.5,2.5-2.5h3V5.5z"/></g>
<g transform="translate(756,700) scale(4.8066666666667)"><path d="M3,5.5H0v-5h3c1.4,0,2.5,1.1,2.5,2.5v0C5.5,4.4,4.4,5.5,3,5.5z"/></g>
<g transform="translate(840,700) scale(4.8066666666667)"><circle cx="3" cy="3" r="2.5"/></g>
<g transform="translate(280,728) scale(4.8066666666667)"><circle cx="3" cy="3" r="2.5"/></g>
<g transform="translate(364,728) scale(4.8066666666667)"><circle cx="3" cy="3" r="2.5"/></g>
<g transform="translate(420,728) scale(4.8066666666667)"><path d="M6,5.5H3C1.6,5.5,0.5,4.4,0.5,3v0c0-1.4,1.1-2.5,2.5-2.5h3V5.5z"/></g>
<g transform="translate(448,728) scale(4.8066666666667)"><rect y="0.5" width="6" height="5"/></g>
<g transform="translate(476,728) scale(4.8066666666667)"><path d="M3,5.5H0v-5h3c1.4,0,2.5,1.1,2.5,2.5v0C5.5,4.4,4.4,5.5,3,5.5z"/></g>
<g transform="translate(560,728) scale(4.8066666666667)"><circle cx="3" cy="3" r="2.5"/></g>
<g transform="translate(616,728) scale(4.8066666666667)"><path d="M6,5.5H3C1.6,5.5,0.5,4.4,0.5,3v0c0-1.4,1.1-2.5,2.5-2.5h3V5.5z"/></g>
<g transform="translate(644,728) scale(4.8066666666667)"><rect y="0.5" width="6" height="5"/></g>
<g transform="translate(672,728) scale(4.8066666666667)"><rect y="0.5" width="6" height="5"/></g>
<g transform="translate(700,728) scale(4.8066666666667)"><rect y="0.5" width="6" height="5"/></g>
<g transform="translate(728,728) scale(4.8066666666667)"><rect y="0.5" width="6" height="5"/></g>
<g transform="translate(756,728) scale(4.8066666666667)"><rect y="0.5" width="6" height="5"/></g>
<g transform="translate(784,728) scale(4.8066666666667)"><rect y="0.5" width="6" height="5"/></g>
<g transform="translate(812,728) scale(4.8066666666667)"><path d="M3,5.5H0v-5h3c1.4,0,2.5,1.1,2.5,2.5v0C5.5,4.4,4.4,5.5,3,5.5z"/></g>
<g transform="translate(280,756) scale(4.8066666666667)"><path d="M6,5.5H3C1.6,5.5,0.5,4.4,0.5,3v0c0-1.4,1.1-2.5,2.5-2.5h3V5.5z"/></g>
<g transform="translate(308,756) scale(4.8066666666667)"><rect y="0.5" width="6" height="5"/></g>
<g transform="translate(336,756) scale(4.8066666666667)"><path d="M3,5.5H0v-5h3c1.4,0,2.5,1.1,2.5,2.5v0C5.5,4.4,4.4,5.5,3,5.5z"/></g>
<g transform="translate(392,756) scale(4.8066666666667)"><circle cx="3" cy="3" r="2.5"/></g>
<g transform="translate(476,756) scale(4.8066666666667)"><path d="M6,5.5H3C1.6,5.5,0.5,4.4,0.5,3v0c0-1.4,1.1-2.5,2.5-2.5h3V5.5z"/></g>
<g transform="translate(504,756) scale(4.8066666666667)"><rect y="0.5" width="6" height="5"/></g>
<g transform="translate(532,756) scale(4.8066666666667)"><path d="M3,5.5H0v-5h3c1.4,0,2.5,1.1,2.5,2.5v0C5.5,4.4,4.4,5.5,3,5.5z"/></g>
<g transform="translate(588,756) scale(4.8066666666667)"><path d="M6,5.5H3C1.6,5.5,0.5,4.4,0.5,3v0c0-1.4,1.1-2.5,2.5-2.5h3V5.5z"/></g>
<g transform="translate(616,756) scale(4.8066666666667)"><path d="M3,5.5H0v-5h3c1.4,0,2.5,1.1,2.5,2.5v0C5.5,4.4,4.4,5.5,3,5.5z"/></g>
<g transform="translate(700,756) scale(4.8066666666667)"><circle cx="3" cy="3" r="2.5"/></g>
<g transform="translate(756,756) scale(4.8066666666667)"><path d="M6,5.5H3C1.6,5.5,0.5,4.4,0.5,3v0c0-1.4,1.1-2.5,2.5-2.5h3V5.5z"/></g>
<g transform="translate(784,756) scale(4.8066666666667)"><path d="M3,5.5H0v-5h3c1.4,0,2.5,1.1,2.5,2.5v0C5.5,4.4,4.4,5.5,3,5.5z"/></g>
<g transform="translate(280,784) scale(4.8066666666667)"><path d="M6,5.5H3C1.6,5.5,0.5,4.4,0.5,3v0c0-1.4,1.1-2.5,2.5-2.5h3V5.5z"/></g>
<g transform="translate(308,784) scale(4.8066666666667)"><rect y="0.5" width="6" height="5"/></g>
<g transform="translate(336,784) scale(4.8066666666667)"><rect y="0.5" width="6" height="5"/></g>
<g transform="translate(364,784) scale(4.8066666666667)"><rect y="0.5" width="6" height="5"/></g>
<g transform="translate(392,784) scale(4.8066666666667)"><path d="M3,5.5H0v-5h3c1.4,0,2.5,1.1,2.5,2.5v0C5.5,4.4,4.4,5.5,3,5.5z"/></g>
<g transform="translate(588,784) scale(4.8066666666667)"><circle cx="3" cy="3" r="2.5"/></g>
<g transform="translate(672,784) scale(4.8066666666667)"><circle cx="3" cy="3" r="2.5"/></g>
<g transform="translate(728,784) scale(4.8066666666667)"><path d="M6,5.5H3C1.6,5.5,0.5,4.4,0.5,3v0c0-1.4,1.1-2.5,2.5-2.5h3V5.5z"/></g>
<g transform="translate(756,784) scale(4.8066666666667)"><rect y="0.5" width="6" height="5"/></g>
<g transform="translate(784,784) scale(4.8066666666667)"><rect y="0.5" width="6" height="5"/></g>
<g transform="translate(812,784) scale(4.8066666666667)"><path d="M3,5.5H0v-5h3c1.4,0,2.5,1.1,2.5,2.5v0C5.5,4.4,4.4,5.5,3,5.5z"/></g>
<g transform="translate(280,812) scale(4.8066666666667)"><path d="M6,5.5H3C1.6,5.5,0.5,4.4,0.5,3v0c0-1.4,1.1-2.5,2.5-2.5h3V5.5z"/></g>
<g transform="translate(308,812) scale(4.8066666666667)"><rect y="0.5" width="6" height="5"/></g>
<g transform="translate(336,812) scale(4.8066666666667)"><rect y="0.5" width="6" height="5"/></g>
<g transform="translate(364,812) scale(4.8066666666667)"><path d="M3,5.5H0v-5h3c1.4,0,2.5,1.1,2.5,2.5v0C5.5,4.4,4.4,5.5,3,5.5z"/></g>
<g transform="translate(420,812) scale(4.8066666666667)"><path d="M6,5.5H3C1.6,5.5,0.5,4.4,0.5,3v0c0-1.4,1.1-2.5,2.5-2.5h3V5.5z"/></g>
<g transform="translate(448,812) scale(4.8066666666667)"><path d="M3,5.5H0v-5h3c1.4,0,2.5,1.1,2.5,2.5v0C5.5,4.4,4.4,5.5,3,5.5z"/></g>
<g transform="translate(504,812) scale(4.8066666666667)"><circle cx="3" cy="3" r="2.5"/></g>
<g transform="translate(616,812) scale(4.8066666666667)"><path d="M6,5.5H3C1.6,5.5,0.5,4.4,0.5,3v0c0-1.4,1.1-2.5,2.5-2.5h3V5.5z"/></g>
<g transform="translate(644,812) scale(4.8066666666667)"><path d="M3,5.5H0v-5h3c1.4,0,2.5,1.1,2.5,2.5v0C5.5,4.4,4.4,5.5,3,5.5z"/></g>
<g transform="translate(728,812) scale(4.8066666666667)"><path d="M6,5.5H3C1.6,5.5,0.5,4.4,0.5,3v0c0-1.4,1.1-2.5,2.5-2.5h3V5.5z"/></g>
<g transform="translate(756,812) scale(4.8066666666667)"><path d="M3,5.5H0v-5h3c1.4,0,2.5,1.1,2.5,2.5v0C5.5,4.4,4.4,5.5,3,5.5z"/></g>
<g transform="translate(812,812) scale(4.8066666666667)"><circle cx="3" cy="3" r="2.5"/></g>
<g transform="translate(420,840) scale(4.8066666666667)"><path d="M6,5.5H3C1.6,5.5,0.5,4.4,0.5,3v0c0-1.4,1.1-2.5,2.5-2.5h3V5.5z"/></g>
<g transform="translate(448,840) scale(4.8066666666667)"><path d="M3,5.5H0v-5h3c1.4,0,2.5,1.1,2.5,2.5v0C5.5,4.4,4.4,5.5,3,5.5z"/></g>
<g transform="translate(532,840) scale(4.8066666666667)"><circle cx="3" cy="3" r="2.5"/></g>
<g transform="translate(728,840) scale(4.8066666666667)"><circle cx="3" cy="3" r="2.5"/></g>
<g transform="translate(784,840) scale(4.8066666666667)"><circle cx="3" cy="3" r="2.5"/></g>
<g transform="translate(56,56)"><g transform="scale(14)"><path d="M0,0l0,7c0,3.9,3.1,7,7,7h7V7c0-3.9-3.1-7-7-7H0z M7,12L7,12c-2.8,0-5-2.2-5-5v0c0-2.8,2.2-5,5-5h0c2.8,0,5,2.2,5,5v0 C12,9.8,9.8,12,7,12z"/></g></g>
<g transform="translate(672,56)"><g transform="scale(14) rotate(90 7 7)"><path d="M0,0l0,7c0,3.9,3.1,7,7,7h7V7c0-3.9-3.1-7-7-7H0z M7,12L7,12c-2.8,0-5-2.2-5-5v0c0-2.8,2.2-5,5-5h0c2.8,0,5,2.2,5,5v0 C12,9.8,9.8,12,7,12z"/></g></g>
<g transform="translate(56,672)"><g transform="scale(14) rotate(-90 7 7)"><path d="M0,0l0,7c0,3.9,3.1,7,7,7h7V7c0-3.9-3.1-7-7-7H0z M7,12L7,12c-2.8,0-5-2.2-5-5v0c0-2.8,2.2-5,5-5h0c2.8,0,5,2.2,5,5v0 C12,9.8,9.8,12,7,12z"/></g></g>
<g transform="translate(112,112)"><g transform="scale(14)"><path d="M5.1,1.9H0.9C0.4,1.9,0,1.5,0,1v0c0-0.5,0.4-0.9,0.9-0.9h4.2C5.6,0.1,6,0.5,6,1v0C6,1.5,5.6,1.9,5.1,1.9z"/><path d="M5.1,3.9H0.9C0.4,3.9,0,3.5,0,3v0c0-0.5,0.4-0.9,0.9-0.9h4.2C5.6,2.1,6,2.5,6,3v0C6,3.5,5.6,3.9,5.1,3.9z"/><path d="M5.1,5.9H0.9C0.4,5.9,0,5.5,0,5v0c0-0.5,0.4-0.9,0.9-0.9h4.2C5.6,4.1,6,4.5,6,5v0C6,5.5,5.6,5.9,5.1,5.9z"/></g></g>
<g transform="translate(728,112)"><g transform="scale(14)"><path d="M5.1,1.9H0.9C0.4,1.9,0,1.5,0,1v0c0-0.5,0.4-0.9,0.9-0.9h4.2C5.6,0.1,6,0.5,6,1v0C6,1.5,5.6,1.9,5.1,1.9z"/><path d="M5.1,3.9H0.9C0.4,3.9,0,3.5,0,3v0c0-0.5,0.4-0.9,0.9-0.9h4.2C5.6,2.1,6,2.5,6,3v0C6,3.5,5.6,3.9,5.1,3.9z"/><path d="M5.1,5.9H0.9C0.4,5.9,0,5.5,0,5v0c0-0.5,0.4-0.9,0.9-0.9h4.2C5.6,4.1,6,4.5,6,5v0C6,5.5,5.6,5.9,5.1,5.9z"/></g></g>
<g transform="translate(112,728)"><g transform="scale(14)"><path d="M5.1,1.9H0.9C0.4,1.9,0,1.5,0,1v0c0-0.5,0.4-0.9,0.9-0.9h4.2C5.6,0.1,6,0.5,6,1v0C6,1.5,5.6,1.9,5.1,1.9z"/><path d="M5.1,3.9H0.9C0.4,3.9,0,3.5,0,3v0c0-0.5,0.4-0.9,0.9-0.9h4.2C5.6,2.1,6,2.5,6,3v0C6,3.5,5.6,3.9,5.1,3.9z"/><path d="M5.1,5.9H0.9C0.4,5.9,0,5.5,0,5v0c0-0.5,0.4-0.9,0.9-0.9h4.2C5.6,4.1,6,4.5,6,5v0C6,5.5,5.6,5.9,5.1,5.9z"/></g></g>
</g></svg>